0
SECTION
2
HEADER
9
$ANGDIR
70
1
9
$AUNITS
70
0
9
$PROJECTNAME
1
activeElectrode_adapter
9
$TDCREATE
40
2458919.39863985
9
$INSUNITS
70
4
0
ENDSEC
0
SECTION
2
ENTITIES
0
POLYLINE
66
1
8
1_copper
10
0.0
20
0.0
30
0.0
70
1
0
VERTEX
8
0
10
-0.025
20
3.6500000000000004
30
0
0
VERTEX
8
0
10
-4.025
20
3.6500000000000004
30
0
0
VERTEX
8
0
10
-4.025
20
3.35
30
0
0
VERTEX
8
0
10
-0.025
20
3.35
30
0
0
SEQEND
0
POLYLINE
66
1
8
1_copper
10
0.0
20
0.0
30
0.0
70
1
0
VERTEX
8
0
10
-0.025
20
3.1500000000000004
30
0
0
VERTEX
8
0
10
-4.025
20
3.1500000000000004
30
0
0
VERTEX
8
0
10
-4.025
20
2.85
30
0
0
VERTEX
8
0
10
-0.025
20
2.85
30
0
0
SEQEND
0
POLYLINE
66
1
8
1_copper
10
0.0
20
0.0
30
0.0
70
1
0
VERTEX
8
0
10
-0.025
20
0.65
30
0
0
VERTEX
8
0
10
-4.025
20
0.65
30
0
0
VERTEX
8
0
10
-4.025
20
0.35000000000000003
30
0
0
VERTEX
8
0
10
-0.025
20
0.35000000000000003
30
0
0
SEQEND
0
POLYLINE
66
1
8
1_copper
10
0.0
20
0.0
30
0.0
70
1
0
VERTEX
8
0
10
-0.025
20
0.15
30
0
0
VERTEX
8
0
10
-4.025
20
0.15
30
0
0
VERTEX
8
0
10
-4.025
20
-0.15
30
0
0
VERTEX
8
0
10
-0.025
20
-0.15
30
0
0
SEQEND
0
POLYLINE
66
1
8
1_copper
10
0.0
20
0.0
30
0.0
70
1
0
VERTEX
8
0
10
-0.025
20
4.15
30
0
0
VERTEX
8
0
10
-4.025
20
4.15
30
0
0
VERTEX
8
0
10
-4.025
20
3.85
30
0
0
VERTEX
8
0
10
-0.025
20
3.85
30
0
0
SEQEND
0
POLYLINE
66
1
8
1_copper
10
0.0
20
0.0
30
0.0
70
1
0
VERTEX
8
0
10
-0.025
20
1.1500000000000001
30
0
0
VERTEX
8
0
10
-4.025
20
1.1500000000000001
30
0
0
VERTEX
8
0
10
-4.025
20
0.8500000000000001
30
0
0
VERTEX
8
0
10
-0.025
20
0.8500000000000001
30
0
0
SEQEND
0
POLYLINE
66
1
8
1_copper
10
0.0
20
0.0
30
0.0
70
1
0
VERTEX
8
0
10
-0.025
20
1.6500000000000001
30
0
0
VERTEX
8
0
10
-4.025
20
1.6500000000000001
30
0
0
VERTEX
8
0
10
-4.025
20
1.35
30
0
0
VERTEX
8
0
10
-0.025
20
1.35
30
0
0
SEQEND
0
POLYLINE
66
1
8
1_copper
10
0.0
20
0.0
30
0.0
70
1
0
VERTEX
8
0
10
-0.025
20
5.65
30
0
0
VERTEX
8
0
10
-4.025
20
5.65
30
0
0
VERTEX
8
0
10
-4.025
20
5.3500000000000005
30
0
0
VERTEX
8
0
10
-0.025
20
5.3500000000000005
30
0
0
SEQEND
0
POLYLINE
66
1
8
1_copper
10
0.0
20
0.0
30
0.0
70
1
0
VERTEX
8
0
10
-0.025
20
5.15
30
0
0
VERTEX
8
0
10
-4.025
20
5.15
30
0
0
VERTEX
8
0
10
-4.025
20
4.8500000000000005
30
0
0
VERTEX
8
0
10
-0.025
20
4.8500000000000005
30
0
0
SEQEND
0
POLYLINE
66
1
8
1_copper
10
0.0
20
0.0
30
0.0
70
1
0
VERTEX
8
0
10
-0.025
20
2.65
30
0
0
VERTEX
8
0
10
-4.025
20
2.65
30
0
0
VERTEX
8
0
10
-4.025
20
2.35
30
0
0
VERTEX
8
0
10
-0.025
20
2.35
30
0
0
SEQEND
0
POLYLINE
66
1
8
1_copper
10
0.0
20
0.0
30
0.0
70
1
0
VERTEX
8
0
10
-0.025
20
2.15
30
0
0
VERTEX
8
0
10
-4.025
20
2.15
30
0
0
VERTEX
8
0
10
-4.025
20
1.85
30
0
0
VERTEX
8
0
10
-0.025
20
1.85
30
0
0
SEQEND
0
POLYLINE
66
1
8
1_copper
10
0.0
20
0.0
30
0.0
70
1
0
VERTEX
8
0
10
-0.025
20
4.65
30
0
0
VERTEX
8
0
10
-4.025
20
4.65
30
0
0
VERTEX
8
0
10
-4.025
20
4.3500000000000005
30
0
0
VERTEX
8
0
10
-0.025
20
4.3500000000000005
30
0
0
SEQEND
0
CIRCLE
8
drills_PTH
10
31.75
20
5.54
30
0
40
0.35000000000000003
0
CIRCLE
8
drills_PTH
10
31.75
20
3.54
30
0
40
0.35000000000000003
0
CIRCLE
8
drills_PTH
10
31.75
20
1.54
30
0
40
0.35000000000000003
0
CIRCLE
8
drills_PTH
10
31.75
20
-0.46
30
0
40
0.35000000000000003
0
CIRCLE
8
drills_PTH
10
43.18
20
5.54
30
0
40
0.35000000000000003
0
CIRCLE
8
drills_PTH
10
43.18
20
3.54
30
0
40
0.35000000000000003
0
CIRCLE
8
drills_PTH
10
43.18
20
1.54
30
0
40
0.35000000000000003
0
CIRCLE
8
drills_PTH
10
43.18
20
-0.46
30
0
40
0.35000000000000003
0
ENDSEC
0
EOF