0
SECTION
2
HEADER
9
$ANGDIR
70
1
9
$AUNITS
70
0
9
$PROJECTNAME
1
adapterV0.1
9
$TDCREATE
40
2458925.61263159
9
$INSUNITS
70
4
0
ENDSEC
0
SECTION
2
ENTITIES
0
POLYLINE
66
1
8
outline
10
0.0
20
0.0
30
0.0
70
1
0
VERTEX
8
0
10
0
20
0
30
0
0
VERTEX
8
0
10
160
20
0
30
0
0
VERTEX
8
0
10
160
20
100
30
0
0
VERTEX
8
0
10
0
20
100
30
0
0
VERTEX
8
0
10
0
20
0
30
0
0
SEQEND
0
POLYLINE
66
1
8
1_copper
10
0.0
20
0.0
30
0.0
70
1
0
VERTEX
8
0
10
9.06
20
7.98
30
0
0
VERTEX
8
0
10
8.76
20
7.98
30
0
0
VERTEX
8
0
10
8.76
20
7.180000000000001
30
0
0
VERTEX
8
0
10
9.06
20
7.180000000000001
30
0
0
SEQEND
0
POLYLINE
66
1
8
1_copper
10
0.0
20
0.0
30
0.0
70
1
0
VERTEX
8
0
10
9.56
20
7.98
30
0
0
VERTEX
8
0
10
9.26
20
7.98
30
0
0
VERTEX
8
0
10
9.26
20
7.180000000000001
30
0
0
VERTEX
8
0
10
9.56
20
7.180000000000001
30
0
0
SEQEND
0
POLYLINE
66
1
8
1_copper
10
0.0
20
0.0
30
0.0
70
1
0
VERTEX
8
0
10
12.06
20
7.98
30
0
0
VERTEX
8
0
10
11.76
20
7.98
30
0
0
VERTEX
8
0
10
11.76
20
7.180000000000001
30
0
0
VERTEX
8
0
10
12.06
20
7.180000000000001
30
0
0
SEQEND
0
POLYLINE
66
1
8
1_copper
10
0.0
20
0.0
30
0.0
70
1
0
VERTEX
8
0
10
12.56
20
7.98
30
0
0
VERTEX
8
0
10
12.26
20
7.98
30
0
0
VERTEX
8
0
10
12.26
20
7.180000000000001
30
0
0
VERTEX
8
0
10
12.56
20
7.180000000000001
30
0
0
SEQEND
0
POLYLINE
66
1
8
1_copper
10
0.0
20
0.0
30
0.0
70
1
0
VERTEX
8
0
10
5.0600000000000005
20
7.556659375000001
30
0
42
0.03861072921745051
0
VERTEX
8
0
10
5.0624
20
7.58
30
0
0
VERTEX
8
0
10
5.0624
20
8.82305
30
0
42
0.19891236737965798
0
VERTEX
8
0
10
5.0177625
20
8.9308125
30
0
0
VERTEX
8
0
10
4.1124
20
9.836175
30
0
0
VERTEX
8
0
10
4.1124
20
22.32
30
0
0
VERTEX
8
0
10
4.11
20
22.343621875
30
0
0
VERTEX
8
0
10
4.11
20
24.32
30
0
0
VERTEX
8
0
10
3.81
20
24.32
30
0
0
VERTEX
8
0
10
3.81
20
22.343340625
30
0
42
0.03861072921745051
0
VERTEX
8
0
10
3.8076000000000003
20
22.32
30
0
0
VERTEX
8
0
10
3.8076000000000003
20
9.773050000000001
30
0
42
0.19891236737965798
0
VERTEX
8
0
10
3.8522375
20
9.6652875
30
0
0
VERTEX
8
0
10
4.7576
20
8.759925
30
0
0
VERTEX
8
0
10
4.7576
20
7.58
30
0
0
VERTEX
8
0
10
4.76
20
7.556378125
30
0
0
VERTEX
8
0
10
4.76
20
7.180000000000001
30
0
0
VERTEX
8
0
10
5.0600000000000005
20
7.180000000000001
30
0
0
SEQEND
0
POLYLINE
66
1
8
1_copper
10
0.0
20
0.0
30
0.0
70
1
0
VERTEX
8
0
10
5.5600000000000005
20
7.555628125
30
0
42
0.07762024335973011
0
VERTEX
8
0
10
5.5600000000000005
20
7.602484375
30
0
0
VERTEX
8
0
10
5.5600000000000005
20
7.98
30
0
0
VERTEX
8
0
10
5.5196000000000005
20
7.98
30
0
0
VERTEX
8
0
10
5.5196000000000005
20
9.01243125
30
0
42
0.19891236737965798
0
VERTEX
8
0
10
5.4749625
20
9.12019375
30
0
0
VERTEX
8
0
10
4.5974
20
9.99775625
30
0
0
VERTEX
8
0
10
4.5974
20
20.32
30
0
0
VERTEX
8
0
10
4.61
20
20.32
30
0
0
VERTEX
8
0
10
4.61
20
24.32
30
0
0
VERTEX
8
0
10
4.3100000000000005
20
24.32
30
0
0
VERTEX
8
0
10
4.3100000000000005
20
21.78685625
30
0
42
0.1199485633841412
0
VERTEX
8
0
10
4.2926
20
21.717000000000002
30
0
0
VERTEX
8
0
10
4.2926
20
9.93463125
30
0
42
0.19891236737965798
0
VERTEX
8
0
10
4.3372375000000005
20
9.826868750000001
30
0
0
VERTEX
8
0
10
5.2148
20
8.949306250000001
30
0
0
VERTEX
8
0
10
5.2148
20
7.622800000000001
30
0
42
0.12062094416407
0
VERTEX
8
0
10
5.2320343750000005
20
7.5524031250000005
30
0
0
VERTEX
8
0
10
5.237378125
20
7.5442687500000005
30
0
42
0.05198218877071167
0
VERTEX
8
0
10
5.260000000000001
20
7.514475
30
0
0
VERTEX
8
0
10
5.260000000000001
20
7.180000000000001
30
0
0
VERTEX
8
0
10
5.5600000000000005
20
7.180000000000001
30
0
0
SEQEND
0
POLYLINE
66
1
8
1_copper
10
0.0
20
0.0
30
0.0
70
1
0
VERTEX
8
0
10
6.423940625
20
17.408271875
30
0
42
0.605783983832962
0
VERTEX
8
0
10
6.6124
20
18.052456250000002
30
0
0
VERTEX
8
0
10
6.6124
20
22.32
30
0
42
0.03906895721765181
0
VERTEX
8
0
10
6.61
20
22.343621875
30
0
0
VERTEX
8
0
10
6.61
20
24.32
30
0
0
VERTEX
8
0
10
6.3100000000000005
20
24.32
30
0
0
VERTEX
8
0
10
6.3100000000000005
20
22.4724
30
0
0
VERTEX
8
0
10
6.11
20
22.4724
30
0
0
VERTEX
8
0
10
6.11
20
24.32
30
0
0
VERTEX
8
0
10
5.8100000000000005
20
24.32
30
0
0
VERTEX
8
0
10
5.8100000000000005
20
22.345590625
30
0
42
0.07899354679615658
0
VERTEX
8
0
10
5.8100000000000005
20
22.297890625
30
0
0
VERTEX
8
0
10
5.8100000000000005
20
20.32
30
0
0
VERTEX
8
0
10
6.11
20
20.32
30
0
0
VERTEX
8
0
10
6.11
20
22.1676
30
0
0
VERTEX
8
0
10
6.3076
20
22.1676
30
0
0
VERTEX
8
0
10
6.3076
20
18.15588125
30
0
0
VERTEX
8
0
10
6.276059375
20
18.151728125
30
0
0
VERTEX
8
0
10
6.228171875
20
18.138896875
30
0
0
VERTEX
8
0
10
6.18236875
20
18.119925000000002
30
0
0
VERTEX
8
0
10
6.13943125
20
18.0951375
30
0
0
VERTEX
8
0
10
6.1001
20
18.06495625
30
0
0
VERTEX
8
0
10
6.06504375
20
18.0299
30
0
0
VERTEX
8
0
10
6.0348625
20
17.99056875
30
0
0
VERTEX
8
0
10
6.0100750000000005
20
17.94763125
30
0
0
VERTEX
8
0
10
5.991103125
20
17.901828125
30
0
0
VERTEX
8
0
10
5.978271875
20
17.853940625
30
0
0
VERTEX
8
0
10
5.9718
20
17.8047875
30
0
0
VERTEX
8
0
10
5.9718
20
17.755212500000003
30
0
0
VERTEX
8
0
10
5.978271875
20
17.706059375000002
30
0
0
VERTEX
8
0
10
5.991103125
20
17.658171875
30
0
0
VERTEX
8
0
10
6.0100750000000005
20
17.61236875
30
0
0
VERTEX
8
0
10
6.0348625
20
17.56943125
30
0
0
VERTEX
8
0
10
6.06504375
20
17.5301
30
0
0
VERTEX
8
0
10
6.1001
20
17.49504375
30
0
0
VERTEX
8
0
10
6.13943125
20
17.464862500000002
30
0
0
VERTEX
8
0
10
6.18236875
20
17.440075
30
0
0
VERTEX
8
0
10
6.228171875
20
17.421103125000002
30
0
0
VERTEX
8
0
10
6.276059375
20
17.408271875
30
0
0
VERTEX
8
0
10
6.3252125
20
17.4018
30
0
0
VERTEX
8
0
10
6.3747875
20
17.4018
30
0
0
SEQEND
0
POLYLINE
66
1
8
1_copper
10
0.0
20
0.0
30
0.0
70
1
0
VERTEX
8
0
10
14.043940625000001
20
5.978271875
30
0
42
0.4662697542730613
0
VERTEX
8
0
10
14.322587500000001
20
6.4870625
30
0
0
VERTEX
8
0
10
14.5177625
20
6.6822375
30
0
42
0.19891236737965798
0
VERTEX
8
0
10
14.5624
20
6.79
30
0
0
VERTEX
8
0
10
14.5624
20
7.58
30
0
0
VERTEX
8
0
10
14.56
20
7.603621875
30
0
0
VERTEX
8
0
10
14.56
20
7.98
30
0
0
VERTEX
8
0
10
14.260000000000002
20
7.98
30
0
0
VERTEX
8
0
10
14.260000000000002
20
7.603340625
30
0
42
0.03861072921745051
0
VERTEX
8
0
10
14.2576
20
7.58
30
0
0
VERTEX
8
0
10
14.2576
20
6.853125
30
0
0
VERTEX
8
0
10
14.107062500000001
20
6.7025875
30
0
0
VERTEX
8
0
10
14.091828125000001
20
6.708896875000001
30
0
0
VERTEX
8
0
10
14.043940625000001
20
6.721728125
30
0
0
VERTEX
8
0
10
13.994787500000001
20
6.7282
30
0
0
VERTEX
8
0
10
13.9452125
20
6.7282
30
0
0
VERTEX
8
0
10
13.896059375
20
6.721728125
30
0
0
VERTEX
8
0
10
13.848171875
20
6.708896875000001
30
0
0
VERTEX
8
0
10
13.802368750000001
20
6.689925000000001
30
0
0
VERTEX
8
0
10
13.75943125
20
6.6651375
30
0
0
VERTEX
8
0
10
13.7201
20
6.63495625
30
0
0
VERTEX
8
0
10
13.68504375
20
6.5999
30
0
0
VERTEX
8
0
10
13.6548625
20
6.560568750000001
30
0
0
VERTEX
8
0
10
13.630075000000001
20
6.51763125
30
0
0
VERTEX
8
0
10
13.611103125000001
20
6.471828125
30
0
0
VERTEX
8
0
10
13.598271875
20
6.423940625
30
0
0
VERTEX
8
0
10
13.591800000000001
20
6.3747875
30
0
0
VERTEX
8
0
10
13.591800000000001
20
6.3252125
30
0
0
VERTEX
8
0
10
13.598271875
20
6.276059375
30
0
0
VERTEX
8
0
10
13.611103125000001
20
6.228171875
30
0
0
VERTEX
8
0
10
13.630075000000001
20
6.18236875
30
0
0
VERTEX
8
0
10
13.6548625
20
6.13943125
30
0
0
VERTEX
8
0
10
13.68504375
20
6.1001
30
0
0
VERTEX
8
0
10
13.7201
20
6.06504375
30
0
0
VERTEX
8
0
10
13.75943125
20
6.0348625
30
0
0
VERTEX
8
0
10
13.802368750000001
20
6.0100750000000005
30
0
0
VERTEX
8
0
10
13.848171875
20
5.991103125
30
0
0
VERTEX
8
0
10
13.896059375
20
5.978271875
30
0
0
VERTEX
8
0
10
13.9452125
20
5.9718
30
0
0
VERTEX
8
0
10
13.994787500000001
20
5.9718
30
0
0
SEQEND
0
POLYLINE
66
1
8
16_copper
10
0.0
20
0.0
30
0.0
70
1
0
VERTEX
8
0
10
6.423940625
20
17.408271875
30
0
0
VERTEX
8
0
10
6.471828125
20
17.421103125000002
30
0
0
VERTEX
8
0
10
6.51763125
20
17.440075
30
0
0
VERTEX
8
0
10
6.560568750000001
20
17.464862500000002
30
0
0
VERTEX
8
0
10
6.5999
20
17.49504375
30
0
0
VERTEX
8
0
10
6.63495625
20
17.5301
30
0
0
VERTEX
8
0
10
6.6651375
20
17.56943125
30
0
0
VERTEX
8
0
10
6.689925000000001
20
17.61236875
30
0
0
VERTEX
8
0
10
6.708896875000001
20
17.658171875
30
0
0
VERTEX
8
0
10
6.721728125
20
17.706059375000002
30
0
0
VERTEX
8
0
10
6.7282
20
17.755212500000003
30
0
0
VERTEX
8
0
10
6.7282
20
17.8047875
30
0
0
VERTEX
8
0
10
6.721728125
20
17.853940625
30
0
0
VERTEX
8
0
10
6.708896875000001
20
17.901828125
30
0
0
VERTEX
8
0
10
6.689925000000001
20
17.94763125
30
0
0
VERTEX
8
0
10
6.6651375
20
17.99056875
30
0
0
VERTEX
8
0
10
6.63495625
20
18.0299
30
0
0
VERTEX
8
0
10
6.5999
20
18.06495625
30
0
0
VERTEX
8
0
10
6.560568750000001
20
18.0951375
30
0
0
VERTEX
8
0
10
6.51763125
20
18.119925000000002
30
0
0
VERTEX
8
0
10
6.471828125
20
18.138896875
30
0
0
VERTEX
8
0
10
6.423940625
20
18.151728125
30
0
0
VERTEX
8
0
10
6.3747875
20
18.1582
30
0
0
VERTEX
8
0
10
6.3252125
20
18.1582
30
0
0
VERTEX
8
0
10
6.276059375
20
18.151728125
30
0
0
VERTEX
8
0
10
6.228171875
20
18.138896875
30
0
0
VERTEX
8
0
10
6.18236875
20
18.119925000000002
30
0
0
VERTEX
8
0
10
6.13943125
20
18.0951375
30
0
0
VERTEX
8
0
10
6.1001
20
18.06495625
30
0
0
VERTEX
8
0
10
6.06504375
20
18.0299
30
0
0
VERTEX
8
0
10
6.0348625
20
17.99056875
30
0
0
VERTEX
8
0
10
6.0100750000000005
20
17.94763125
30
0
0
VERTEX
8
0
10
5.991103125
20
17.901828125
30
0
0
VERTEX
8
0
10
5.978271875
20
17.853940625
30
0
0
VERTEX
8
0
10
5.9718
20
17.8047875
30
0
0
VERTEX
8
0
10
5.9718
20
17.755212500000003
30
0
0
VERTEX
8
0
10
5.978271875
20
17.706059375000002
30
0
0
VERTEX
8
0
10
5.991103125
20
17.658171875
30
0
0
VERTEX
8
0
10
6.0100750000000005
20
17.61236875
30
0
0
VERTEX
8
0
10
6.0348625
20
17.56943125
30
0
0
VERTEX
8
0
10
6.06504375
20
17.5301
30
0
0
VERTEX
8
0
10
6.1001
20
17.49504375
30
0
0
VERTEX
8
0
10
6.13943125
20
17.464862500000002
30
0
0
VERTEX
8
0
10
6.18236875
20
17.440075
30
0
0
VERTEX
8
0
10
6.228171875
20
17.421103125000002
30
0
0
VERTEX
8
0
10
6.276059375
20
17.408271875
30
0
0
VERTEX
8
0
10
6.3252125
20
17.4018
30
0
0
VERTEX
8
0
10
6.3747875
20
17.4018
30
0
0
SEQEND
0
POLYLINE
66
1
8
16_copper
10
0.0
20
0.0
30
0.0
70
1
0
VERTEX
8
0
10
14.043940625000001
20
5.978271875
30
0
0
VERTEX
8
0
10
14.091828125000001
20
5.991103125
30
0
0
VERTEX
8
0
10
14.13763125
20
6.0100750000000005
30
0
0
VERTEX
8
0
10
14.18056875
20
6.0348625
30
0
0
VERTEX
8
0
10
14.2199
20
6.06504375
30
0
0
VERTEX
8
0
10
14.254956250000001
20
6.1001
30
0
0
VERTEX
8
0
10
14.285137500000001
20
6.13943125
30
0
0
VERTEX
8
0
10
14.309925000000002
20
6.18236875
30
0
0
VERTEX
8
0
10
14.328896875
20
6.228171875
30
0
0
VERTEX
8
0
10
14.341728125000001
20
6.276059375
30
0
0
VERTEX
8
0
10
14.3482
20
6.3252125
30
0
0
VERTEX
8
0
10
14.3482
20
6.3747875
30
0
0
VERTEX
8
0
10
14.341728125000001
20
6.423940625
30
0
0
VERTEX
8
0
10
14.328896875
20
6.471828125
30
0
0
VERTEX
8
0
10
14.309925000000002
20
6.51763125
30
0
0
VERTEX
8
0
10
14.285137500000001
20
6.560568750000001
30
0
0
VERTEX
8
0
10
14.254956250000001
20
6.5999
30
0
0
VERTEX
8
0
10
14.2199
20
6.63495625
30
0
0
VERTEX
8
0
10
14.18056875
20
6.6651375
30
0
0
VERTEX
8
0
10
14.13763125
20
6.689925000000001
30
0
0
VERTEX
8
0
10
14.091828125000001
20
6.708896875000001
30
0
0
VERTEX
8
0
10
14.043940625000001
20
6.721728125
30
0
0
VERTEX
8
0
10
13.994787500000001
20
6.7282
30
0
0
VERTEX
8
0
10
13.9452125
20
6.7282
30
0
0
VERTEX
8
0
10
13.896059375
20
6.721728125
30
0
0
VERTEX
8
0
10
13.848171875
20
6.708896875000001
30
0
0
VERTEX
8
0
10
13.802368750000001
20
6.689925000000001
30
0
0
VERTEX
8
0
10
13.75943125
20
6.6651375
30
0
0
VERTEX
8
0
10
13.7201
20
6.63495625
30
0
0
VERTEX
8
0
10
13.68504375
20
6.5999
30
0
0
VERTEX
8
0
10
13.6548625
20
6.560568750000001
30
0
0
VERTEX
8
0
10
13.630075000000001
20
6.51763125
30
0
0
VERTEX
8
0
10
13.611103125000001
20
6.471828125
30
0
0
VERTEX
8
0
10
13.598271875
20
6.423940625
30
0
0
VERTEX
8
0
10
13.591800000000001
20
6.3747875
30
0
0
VERTEX
8
0
10
13.591800000000001
20
6.3252125
30
0
0
VERTEX
8
0
10
13.598271875
20
6.276059375
30
0
0
VERTEX
8
0
10
13.611103125000001
20
6.228171875
30
0
0
VERTEX
8
0
10
13.630075000000001
20
6.18236875
30
0
0
VERTEX
8
0
10
13.6548625
20
6.13943125
30
0
0
VERTEX
8
0
10
13.68504375
20
6.1001
30
0
0
VERTEX
8
0
10
13.7201
20
6.06504375
30
0
0
VERTEX
8
0
10
13.75943125
20
6.0348625
30
0
0
VERTEX
8
0
10
13.802368750000001
20
6.0100750000000005
30
0
0
VERTEX
8
0
10
13.848171875
20
5.991103125
30
0
0
VERTEX
8
0
10
13.896059375
20
5.978271875
30
0
0
VERTEX
8
0
10
13.9452125
20
5.9718
30
0
0
VERTEX
8
0
10
13.994787500000001
20
5.9718
30
0
0
SEQEND
0
POLYLINE
66
1
8
1_copper
10
0.0
20
0.0
30
0.0
70
1
0
VERTEX
8
0
10
7.5034406250000005
20
19.249771875
30
0
42
0.6991317789038856
0
VERTEX
8
0
10
7.6124
20
19.952609375
30
0
0
VERTEX
8
0
10
7.6124
20
22.1676
30
0
0
VERTEX
8
0
10
7.8100000000000005
20
22.1676
30
0
0
VERTEX
8
0
10
7.8100000000000005
20
20.32
30
0
0
VERTEX
8
0
10
8.110000000000001
20
20.32
30
0
0
VERTEX
8
0
10
8.110000000000001
20
22.294409375
30
0
42
0.07899354679615658
0
VERTEX
8
0
10
8.110000000000001
20
22.342109375
30
0
0
VERTEX
8
0
10
8.110000000000001
20
24.32
30
0
0
VERTEX
8
0
10
7.8100000000000005
20
24.32
30
0
0
VERTEX
8
0
10
7.8100000000000005
20
22.4724
30
0
0
VERTEX
8
0
10
7.61
20
22.4724
30
0
0
VERTEX
8
0
10
7.61
20
24.32
30
0
0
VERTEX
8
0
10
7.3100000000000005
20
24.32
30
0
0
VERTEX
8
0
10
7.3100000000000005
20
22.4724
30
0
0
VERTEX
8
0
10
7.11
20
22.4724
30
0
0
VERTEX
8
0
10
7.11
20
24.32
30
0
0
VERTEX
8
0
10
6.8100000000000005
20
24.32
30
0
0
VERTEX
8
0
10
6.8100000000000005
20
22.345590625
30
0
42
0.07899354679615658
0
VERTEX
8
0
10
6.8100000000000005
20
22.297890625
30
0
0
VERTEX
8
0
10
6.8100000000000005
20
20.32
30
0
0
VERTEX
8
0
10
7.11
20
20.32
30
0
0
VERTEX
8
0
10
7.11
20
22.1676
30
0
0
VERTEX
8
0
10
7.307600000000001
20
22.1676
30
0
0
VERTEX
8
0
10
7.307600000000001
20
19.980365625
30
0
0
VERTEX
8
0
10
7.2618687500000005
20
19.961425000000002
30
0
0
VERTEX
8
0
10
7.218931250000001
20
19.9366375
30
0
0
VERTEX
8
0
10
7.179600000000001
20
19.90645625
30
0
0
VERTEX
8
0
10
7.14454375
20
19.8714
30
0
0
VERTEX
8
0
10
7.1143625
20
19.83206875
30
0
0
VERTEX
8
0
10
7.089575
20
19.78913125
30
0
0
VERTEX
8
0
10
7.070603125000001
20
19.743328125
30
0
0
VERTEX
8
0
10
7.057771875
20
19.695440625
30
0
0
VERTEX
8
0
10
7.0513
20
19.6462875
30
0
0
VERTEX
8
0
10
7.0513
20
19.596712500000002
30
0
0
VERTEX
8
0
10
7.057771875
20
19.547559375000002
30
0
0
VERTEX
8
0
10
7.070603125000001
20
19.499671875
30
0
0
VERTEX
8
0
10
7.089575
20
19.45386875
30
0
0
VERTEX
8
0
10
7.1143625
20
19.41093125
30
0
0
VERTEX
8
0
10
7.14454375
20
19.3716
30
0
0
VERTEX
8
0
10
7.179600000000001
20
19.33654375
30
0
0
VERTEX
8
0
10
7.218931250000001
20
19.306362500000002
30
0
0
VERTEX
8
0
10
7.2618687500000005
20
19.281575
30
0
0
VERTEX
8
0
10
7.3076718750000005
20
19.262603125000002
30
0
0
VERTEX
8
0
10
7.355559375
20
19.249771875
30
0
0
VERTEX
8
0
10
7.4047125000000005
20
19.2433
30
0
0
VERTEX
8
0
10
7.4542875
20
19.2433
30
0
0
SEQEND
0
POLYLINE
66
1
8
1_copper
10
0.0
20
0.0
30
0.0
70
1
0
VERTEX
8
0
10
4.5600000000000005
20
7.98
30
0
0
VERTEX
8
0
10
4.26
20
7.98
30
0
0
VERTEX
8
0
10
4.26
20
7.180000000000001
30
0
0
VERTEX
8
0
10
4.5600000000000005
20
7.180000000000001
30
0
0
SEQEND
0
POLYLINE
66
1
8
16_copper
10
0.0
20
0.0
30
0.0
70
1
0
VERTEX
8
0
10
7.5034406250000005
20
19.249771875
30
0
0
VERTEX
8
0
10
7.551328125
20
19.262603125000002
30
0
0
VERTEX
8
0
10
7.59713125
20
19.281575
30
0
0
VERTEX
8
0
10
7.64006875
20
19.306362500000002
30
0
0
VERTEX
8
0
10
7.6794
20
19.33654375
30
0
0
VERTEX
8
0
10
7.7144562500000005
20
19.3716
30
0
0
VERTEX
8
0
10
7.7446375000000005
20
19.41093125
30
0
0
VERTEX
8
0
10
7.769425
20
19.45386875
30
0
0
VERTEX
8
0
10
7.788396875
20
19.499671875
30
0
0
VERTEX
8
0
10
7.801228125000001
20
19.547559375000002
30
0
0
VERTEX
8
0
10
7.8077000000000005
20
19.596712500000002
30
0
0
VERTEX
8
0
10
7.8077000000000005
20
19.6462875
30
0
0
VERTEX
8
0
10
7.801228125000001
20
19.695440625
30
0
0
VERTEX
8
0
10
7.788396875
20
19.743328125
30
0
0
VERTEX
8
0
10
7.769425
20
19.78913125
30
0
0
VERTEX
8
0
10
7.7446375000000005
20
19.83206875
30
0
0
VERTEX
8
0
10
7.7144562500000005
20
19.8714
30
0
0
VERTEX
8
0
10
7.6794
20
19.90645625
30
0
0
VERTEX
8
0
10
7.64006875
20
19.9366375
30
0
0
VERTEX
8
0
10
7.59713125
20
19.961425000000002
30
0
0
VERTEX
8
0
10
7.551328125
20
19.980396875
30
0
0
VERTEX
8
0
10
7.5034406250000005
20
19.993228125
30
0
0
VERTEX
8
0
10
7.4542875
20
19.9997
30
0
0
VERTEX
8
0
10
7.4047125000000005
20
19.9997
30
0
0
VERTEX
8
0
10
7.355559375
20
19.993228125
30
0
0
VERTEX
8
0
10
7.3076718750000005
20
19.980396875
30
0
0
VERTEX
8
0
10
7.2618687500000005
20
19.961425000000002
30
0
0
VERTEX
8
0
10
7.218931250000001
20
19.9366375
30
0
0
VERTEX
8
0
10
7.179600000000001
20
19.90645625
30
0
0
VERTEX
8
0
10
7.14454375
20
19.8714
30
0
0
VERTEX
8
0
10
7.1143625
20
19.83206875
30
0
0
VERTEX
8
0
10
7.089575
20
19.78913125
30
0
0
VERTEX
8
0
10
7.070603125000001
20
19.743328125
30
0
0
VERTEX
8
0
10
7.057771875
20
19.695440625
30
0
0
VERTEX
8
0
10
7.0513
20
19.6462875
30
0
0
VERTEX
8
0
10
7.0513
20
19.596712500000002
30
0
0
VERTEX
8
0
10
7.057771875
20
19.547559375000002
30
0
0
VERTEX
8
0
10
7.070603125000001
20
19.499671875
30
0
0
VERTEX
8
0
10
7.089575
20
19.45386875
30
0
0
VERTEX
8
0
10
7.1143625
20
19.41093125
30
0
0
VERTEX
8
0
10
7.14454375
20
19.3716
30
0
0
VERTEX
8
0
10
7.179600000000001
20
19.33654375
30
0
0
VERTEX
8
0
10
7.218931250000001
20
19.306362500000002
30
0
0
VERTEX
8
0
10
7.2618687500000005
20
19.281575
30
0
0
VERTEX
8
0
10
7.3076718750000005
20
19.262603125000002
30
0
0
VERTEX
8
0
10
7.355559375
20
19.249771875
30
0
0
VERTEX
8
0
10
7.4047125000000005
20
19.2433
30
0
0
VERTEX
8
0
10
7.4542875
20
19.2433
30
0
0
SEQEND
0
POLYLINE
66
1
8
1_copper
10
0.0
20
0.0
30
0.0
70
1
0
VERTEX
8
0
10
6.0600000000000005
20
7.556659375000001
30
0
42
0.03861072921745051
0
VERTEX
8
0
10
6.0624
20
7.58
30
0
0
VERTEX
8
0
10
6.0624
20
15.744925
30
0
0
VERTEX
8
0
10
8.5677625
20
18.250287500000002
30
0
42
0.19891236737965798
0
VERTEX
8
0
10
8.612400000000001
20
18.358050000000002
30
0
0
VERTEX
8
0
10
8.612400000000001
20
22.32
30
0
0
VERTEX
8
0
10
8.610000000000001
20
22.343621875
30
0
0
VERTEX
8
0
10
8.610000000000001
20
24.32
30
0
0
VERTEX
8
0
10
8.31
20
24.32
30
0
0
VERTEX
8
0
10
8.31
20
22.343340625
30
0
42
0.03861072921745051
0
VERTEX
8
0
10
8.3076
20
22.32
30
0
0
VERTEX
8
0
10
8.3076
20
18.421175
30
0
0
VERTEX
8
0
10
5.8022375
20
15.915812500000001
30
0
42
0.19891236737965798
0
VERTEX
8
0
10
5.7576
20
15.808050000000001
30
0
0
VERTEX
8
0
10
5.7576
20
7.58
30
0
0
VERTEX
8
0
10
5.760000000000001
20
7.556378125
30
0
0
VERTEX
8
0
10
5.760000000000001
20
7.180000000000001
30
0
0
VERTEX
8
0
10
6.0600000000000005
20
7.180000000000001
30
0
0
SEQEND
0
POLYLINE
66
1
8
1_copper
10
0.0
20
0.0
30
0.0
70
1
0
VERTEX
8
0
10
7.0600000000000005
20
7.556659375000001
30
0
42
0.03861072921745051
0
VERTEX
8
0
10
7.0624
20
7.58
30
0
0
VERTEX
8
0
10
7.0624
20
15.318212500000001
30
0
0
VERTEX
8
0
10
9.5677625
20
17.823575
30
0
42
0.19891236737965798
0
VERTEX
8
0
10
9.612400000000001
20
17.9313375
30
0
0
VERTEX
8
0
10
9.612400000000001
20
22.32
30
0
0
VERTEX
8
0
10
9.610000000000001
20
22.343621875
30
0
0
VERTEX
8
0
10
9.610000000000001
20
24.32
30
0
0
VERTEX
8
0
10
9.31
20
24.32
30
0
0
VERTEX
8
0
10
9.31
20
22.343340625
30
0
42
0.03861072921745051
0
VERTEX
8
0
10
9.3076
20
22.32
30
0
0
VERTEX
8
0
10
9.3076
20
17.9944625
30
0
0
VERTEX
8
0
10
6.8022375
20
15.4891
30
0
42
0.19891236737965798
0
VERTEX
8
0
10
6.7576
20
15.3813375
30
0
0
VERTEX
8
0
10
6.7576
20
7.58
30
0
0
VERTEX
8
0
10
6.760000000000001
20
7.556378125
30
0
0
VERTEX
8
0
10
6.760000000000001
20
7.180000000000001
30
0
0
VERTEX
8
0
10
7.0600000000000005
20
7.180000000000001
30
0
0
SEQEND
0
POLYLINE
66
1
8
1_copper
10
0.0
20
0.0
30
0.0
70
1
0
VERTEX
8
0
10
7.5600000000000005
20
7.556659375000001
30
0
42
0.03861072921745051
0
VERTEX
8
0
10
7.5624
20
7.58
30
0
0
VERTEX
8
0
10
7.5624
20
15.1111
30
0
0
VERTEX
8
0
10
10.0677625
20
17.6164625
30
0
42
0.19891236737965798
0
VERTEX
8
0
10
10.112400000000001
20
17.724225
30
0
0
VERTEX
8
0
10
10.112400000000001
20
22.32
30
0
0
VERTEX
8
0
10
10.110000000000001
20
22.343621875
30
0
0
VERTEX
8
0
10
10.110000000000001
20
24.32
30
0
0
VERTEX
8
0
10
9.81
20
24.32
30
0
0
VERTEX
8
0
10
9.81
20
22.343340625
30
0
42
0.03861072921745051
0
VERTEX
8
0
10
9.8076
20
22.32
30
0
0
VERTEX
8
0
10
9.8076
20
17.78735
30
0
0
VERTEX
8
0
10
7.3022375
20
15.281987500000001
30
0
42
0.19891236737965798
0
VERTEX
8
0
10
7.2576
20
15.174225
30
0
0
VERTEX
8
0
10
7.2576
20
7.58
30
0
0
VERTEX
8
0
10
7.260000000000001
20
7.556378125
30
0
0
VERTEX
8
0
10
7.260000000000001
20
7.180000000000001
30
0
0
VERTEX
8
0
10
7.5600000000000005
20
7.180000000000001
30
0
0
SEQEND
0
POLYLINE
66
1
8
1_copper
10
0.0
20
0.0
30
0.0
70
1
0
VERTEX
8
0
10
8.06
20
7.556659375000001
30
0
42
0.03861072921745051
0
VERTEX
8
0
10
8.0624
20
7.58
30
0
0
VERTEX
8
0
10
8.0624
20
14.903987500000001
30
0
0
VERTEX
8
0
10
10.5677625
20
17.40935
30
0
42
0.19891236737965798
0
VERTEX
8
0
10
10.612400000000001
20
17.5171125
30
0
0
VERTEX
8
0
10
10.612400000000001
20
22.32
30
0
0
VERTEX
8
0
10
10.610000000000001
20
22.343621875
30
0
0
VERTEX
8
0
10
10.610000000000001
20
24.32
30
0
0
VERTEX
8
0
10
10.31
20
24.32
30
0
0
VERTEX
8
0
10
10.31
20
22.343340625
30
0
42
0.03861072921745051
0
VERTEX
8
0
10
10.3076
20
22.32
30
0
0
VERTEX
8
0
10
10.3076
20
17.5802375
30
0
0
VERTEX
8
0
10
7.8022375
20
15.074875
30
0
42
0.19891236737965798
0
VERTEX
8
0
10
7.7576
20
14.9671125
30
0
0
VERTEX
8
0
10
7.7576
20
7.58
30
0
0
VERTEX
8
0
10
7.760000000000001
20
7.556378125
30
0
0
VERTEX
8
0
10
7.760000000000001
20
7.180000000000001
30
0
0
VERTEX
8
0
10
8.06
20
7.180000000000001
30
0
0
SEQEND
0
POLYLINE
66
1
8
1_copper
10
0.0
20
0.0
30
0.0
70
1
0
VERTEX
8
0
10
6.5600000000000005
20
7.556659375000001
30
0
42
0.03861072921745051
0
VERTEX
8
0
10
6.5624
20
7.58
30
0
0
VERTEX
8
0
10
6.5624
20
15.525325
30
0
0
VERTEX
8
0
10
9.0677625
20
18.0306875
30
0
42
0.19891236737965798
0
VERTEX
8
0
10
9.112400000000001
20
18.138450000000002
30
0
0
VERTEX
8
0
10
9.112400000000001
20
22.32
30
0
0
VERTEX
8
0
10
9.110000000000001
20
22.343621875
30
0
0
VERTEX
8
0
10
9.110000000000001
20
24.32
30
0
0
VERTEX
8
0
10
8.81
20
24.32
30
0
0
VERTEX
8
0
10
8.81
20
22.343340625
30
0
42
0.03861072921745051
0
VERTEX
8
0
10
8.8076
20
22.32
30
0
0
VERTEX
8
0
10
8.8076
20
18.201575000000002
30
0
0
VERTEX
8
0
10
6.3022375
20
15.696212500000001
30
0
42
0.19891236737965798
0
VERTEX
8
0
10
6.2576
20
15.58845
30
0
0
VERTEX
8
0
10
6.2576
20
7.58
30
0
0
VERTEX
8
0
10
6.260000000000001
20
7.556378125
30
0
0
VERTEX
8
0
10
6.260000000000001
20
7.180000000000001
30
0
0
VERTEX
8
0
10
6.5600000000000005
20
7.180000000000001
30
0
0
SEQEND
0
POLYLINE
66
1
8
1_copper
10
0.0
20
0.0
30
0.0
70
1
0
VERTEX
8
0
10
8.56
20
7.556659375000001
30
0
42
0.03861072921745051
0
VERTEX
8
0
10
8.5624
20
7.58
30
0
0
VERTEX
8
0
10
8.5624
20
14.696875
30
0
0
VERTEX
8
0
10
11.0677625
20
17.202237500000003
30
0
42
0.19891236737965798
0
VERTEX
8
0
10
11.112400000000001
20
17.310000000000002
30
0
0
VERTEX
8
0
10
11.112400000000001
20
22.32
30
0
0
VERTEX
8
0
10
11.110000000000001
20
22.343621875
30
0
0
VERTEX
8
0
10
11.110000000000001
20
24.32
30
0
0
VERTEX
8
0
10
10.81
20
24.32
30
0
0
VERTEX
8
0
10
10.81
20
22.343340625
30
0
42
0.03861072921745051
0
VERTEX
8
0
10
10.8076
20
22.32
30
0
0
VERTEX
8
0
10
10.8076
20
17.373125
30
0
0
VERTEX
8
0
10
8.3022375
20
14.867762500000001
30
0
42
0.19891236737965798
0
VERTEX
8
0
10
8.2576
20
14.760000000000002
30
0
0
VERTEX
8
0
10
8.2576
20
7.58
30
0
0
VERTEX
8
0
10
8.26
20
7.556378125
30
0
0
VERTEX
8
0
10
8.26
20
7.180000000000001
30
0
0
VERTEX
8
0
10
8.56
20
7.180000000000001
30
0
0
SEQEND
0
POLYLINE
66
1
8
1_copper
10
0.0
20
0.0
30
0.0
70
1
0
VERTEX
8
0
10
10.522271875000001
20
15.460690625000002
30
0
42
0.4662697542730613
0
VERTEX
8
0
10
10.800918750000001
20
15.969481250000001
30
0
0
VERTEX
8
0
10
11.5677625
20
16.736325
30
0
42
0.19891236737965798
0
VERTEX
8
0
10
11.612400000000001
20
16.8440875
30
0
0
VERTEX
8
0
10
11.612400000000001
20
22.32
30
0
0
VERTEX
8
0
10
11.610000000000001
20
22.343621875
30
0
0
VERTEX
8
0
10
11.610000000000001
20
24.32
30
0
0
VERTEX
8
0
10
11.31
20
24.32
30
0
0
VERTEX
8
0
10
11.31
20
22.343340625
30
0
42
0.03861072921745051
0
VERTEX
8
0
10
11.3076
20
22.32
30
0
0
VERTEX
8
0
10
11.3076
20
16.9072125
30
0
0
VERTEX
8
0
10
10.58539375
20
16.18500625
30
0
0
VERTEX
8
0
10
10.570159375000001
20
16.191315625
30
0
0
VERTEX
8
0
10
10.522271875000001
20
16.204146875
30
0
0
VERTEX
8
0
10
10.473118750000001
20
16.210618750000002
30
0
0
VERTEX
8
0
10
10.42354375
20
16.210618750000002
30
0
0
VERTEX
8
0
10
10.374390625
20
16.204146875
30
0
0
VERTEX
8
0
10
10.326503125
20
16.191315625
30
0
0
VERTEX
8
0
10
10.280700000000001
20
16.17234375
30
0
0
VERTEX
8
0
10
10.2377625
20
16.14755625
30
0
0
VERTEX
8
0
10
10.19843125
20
16.117375
30
0
0
VERTEX
8
0
10
10.163375
20
16.082318750000002
30
0
0
VERTEX
8
0
10
10.13319375
20
16.042987500000002
30
0
0
VERTEX
8
0
10
10.10840625
20
16.00005
30
0
0
VERTEX
8
0
10
10.089434375
20
15.954246875
30
0
0
VERTEX
8
0
10
10.076603125
20
15.906359375000001
30
0
0
VERTEX
8
0
10
10.070131250000001
20
15.85720625
30
0
0
VERTEX
8
0
10
10.070131250000001
20
15.80763125
30
0
0
VERTEX
8
0
10
10.076603125
20
15.758478125
30
0
0
VERTEX
8
0
10
10.089434375
20
15.710590625
30
0
0
VERTEX
8
0
10
10.10840625
20
15.664787500000001
30
0
0
VERTEX
8
0
10
10.13319375
20
15.62185
30
0
0
VERTEX
8
0
10
10.163375
20
15.58251875
30
0
0
VERTEX
8
0
10
10.19843125
20
15.5474625
30
0
0
VERTEX
8
0
10
10.2377625
20
15.51728125
30
0
0
VERTEX
8
0
10
10.280700000000001
20
15.492493750000001
30
0
0
VERTEX
8
0
10
10.326503125
20
15.473521875000001
30
0
0
VERTEX
8
0
10
10.374390625
20
15.460690625000002
30
0
0
VERTEX
8
0
10
10.42354375
20
15.45421875
30
0
0
VERTEX
8
0
10
10.473118750000001
20
15.45421875
30
0
0
SEQEND
0
POLYLINE
66
1
8
1_copper
10
0.0
20
0.0
30
0.0
70
1
0
VERTEX
8
0
10
13.06
20
7.556659375000001
30
0
42
0.03861072921745051
0
VERTEX
8
0
10
13.0624
20
7.58
30
0
0
VERTEX
8
0
10
13.0624
20
9.588825
30
0
42
0.19492801580323635
0
VERTEX
8
0
10
13.030353125000001
20
9.705540625000001
30
0
0
VERTEX
8
0
10
13.043184375000001
20
9.753428125000001
30
0
42
0.9999999999999999
0
VERTEX
8
0
10
12.299728125000001
20
9.901309375
30
0
0
VERTEX
8
0
10
12.29325625
20
9.85215625
30
0
42
0.5035432066801603
0
VERTEX
8
0
10
12.7576
20
9.458909375000001
30
0
0
VERTEX
8
0
10
12.7576
20
7.58
30
0
0
VERTEX
8
0
10
12.76
20
7.556378125
30
0
0
VERTEX
8
0
10
12.76
20
7.180000000000001
30
0
0
VERTEX
8
0
10
13.06
20
7.180000000000001
30
0
0
SEQEND
0
POLYLINE
66
1
8
16_copper
10
0.0
20
0.0
30
0.0
70
1
0
VERTEX
8
0
10
12.745396875
20
9.455640625000001
30
0
42
0.668178810011863
0
VERTEX
8
0
10
12.882025
20
10.14250625
30
0
0
VERTEX
8
0
10
12.8390875
20
10.16729375
30
0
42
0.12332143765567113
0
VERTEX
8
0
10
12.77921875
20
10.224193750000001
30
0
0
VERTEX
8
0
10
10.93915
20
12.0642625
30
0
0
VERTEX
8
0
10
10.93915
20
15.494000000000002
30
0
42
0.19891236737965798
0
VERTEX
8
0
10
10.894512500000001
20
15.601762500000001
30
0
0
VERTEX
8
0
10
10.800918750000001
20
15.695356250000001
30
0
42
0.9572325849358252
0
VERTEX
8
0
10
10.10840625
20
16.00005
30
0
0
VERTEX
8
0
10
10.089434375
20
15.954246875
30
0
42
0.6370250255407952
0
VERTEX
8
0
10
10.58539375
20
15.47983125
30
0
0
VERTEX
8
0
10
10.634350000000001
20
15.430875
30
0
0
VERTEX
8
0
10
10.634350000000001
20
12.0011375
30
0
42
0.19891236737965798
0
VERTEX
8
0
10
10.6789875
20
11.893375
30
0
0
VERTEX
8
0
10
12.443328125
20
10.129034375
30
0
0
VERTEX
8
0
10
12.42155625
20
10.112325
30
0
0
VERTEX
8
0
10
12.3865
20
10.07726875
30
0
0
VERTEX
8
0
10
12.35631875
20
10.0379375
30
0
0
VERTEX
8
0
10
12.331531250000001
20
9.995000000000001
30
0
0
VERTEX
8
0
10
12.312559375000001
20
9.949196875
30
0
0
VERTEX
8
0
10
12.299728125000001
20
9.901309375
30
0
0
VERTEX
8
0
10
12.29325625
20
9.85215625
30
0
0
VERTEX
8
0
10
12.29325625
20
9.802581250000001
30
0
0
VERTEX
8
0
10
12.299728125000001
20
9.753428125000001
30
0
0
VERTEX
8
0
10
12.312559375000001
20
9.705540625000001
30
0
0
VERTEX
8
0
10
12.331531250000001
20
9.6597375
30
0
0
VERTEX
8
0
10
12.35631875
20
9.616800000000001
30
0
0
VERTEX
8
0
10
12.3865
20
9.577468750000001
30
0
0
VERTEX
8
0
10
12.42155625
20
9.542412500000001
30
0
0
VERTEX
8
0
10
12.4608875
20
9.512231250000001
30
0
0
VERTEX
8
0
10
12.503825
20
9.48744375
30
0
0
VERTEX
8
0
10
12.549628125
20
9.468471875
30
0
0
VERTEX
8
0
10
12.597515625
20
9.455640625000001
30
0
0
VERTEX
8
0
10
12.64666875
20
9.44916875
30
0
0
VERTEX
8
0
10
12.69624375
20
9.44916875
30
0
0
SEQEND
0
POLYLINE
66
1
8
1_copper
10
0.0
20
0.0
30
0.0
70
1
0
VERTEX
8
0
10
11.543690625
20
15.455271875000001
30
0
42
0.4662697542730613
0
VERTEX
8
0
10
11.8223375
20
15.9640625
30
0
0
VERTEX
8
0
10
12.0677625
20
16.2094875
30
0
42
0.19891236737965798
0
VERTEX
8
0
10
12.112400000000001
20
16.31725
30
0
0
VERTEX
8
0
10
12.112400000000001
20
22.32
30
0
0
VERTEX
8
0
10
12.110000000000001
20
22.343621875
30
0
0
VERTEX
8
0
10
12.110000000000001
20
24.32
30
0
0
VERTEX
8
0
10
11.81
20
24.32
30
0
0
VERTEX
8
0
10
11.81
20
22.343340625
30
0
42
0.03861072921745051
0
VERTEX
8
0
10
11.8076
20
22.32
30
0
0
VERTEX
8
0
10
11.8076
20
16.380375
30
0
0
VERTEX
8
0
10
11.6068125
20
16.1795875
30
0
0
VERTEX
8
0
10
11.591578125
20
16.185896875
30
0
0
VERTEX
8
0
10
11.543690625
20
16.198728125000002
30
0
0
VERTEX
8
0
10
11.4945375
20
16.2052
30
0
0
VERTEX
8
0
10
11.4449625
20
16.2052
30
0
0
VERTEX
8
0
10
11.395809375
20
16.198728125000002
30
0
0
VERTEX
8
0
10
11.347921875
20
16.185896875
30
0
0
VERTEX
8
0
10
11.30211875
20
16.166925
30
0
0
VERTEX
8
0
10
11.259181250000001
20
16.1421375
30
0
0
VERTEX
8
0
10
11.219850000000001
20
16.111956250000002
30
0
0
VERTEX
8
0
10
11.18479375
20
16.076900000000002
30
0
0
VERTEX
8
0
10
11.1546125
20
16.037568750000002
30
0
0
VERTEX
8
0
10
11.129825
20
15.994631250000001
30
0
0
VERTEX
8
0
10
11.110853125
20
15.948828125
30
0
0
VERTEX
8
0
10
11.098021875
20
15.900940625
30
0
0
VERTEX
8
0
10
11.09155
20
15.8517875
30
0
0
VERTEX
8
0
10
11.09155
20
15.802212500000001
30
0
0
VERTEX
8
0
10
11.098021875
20
15.753059375000001
30
0
0
VERTEX
8
0
10
11.110853125
20
15.705171875000001
30
0
0
VERTEX
8
0
10
11.129825
20
15.65936875
30
0
0
VERTEX
8
0
10
11.1546125
20
15.616431250000002
30
0
0
VERTEX
8
0
10
11.18479375
20
15.577100000000002
30
0
0
VERTEX
8
0
10
11.219850000000001
20
15.542043750000001
30
0
0
VERTEX
8
0
10
11.259181250000001
20
15.511862500000001
30
0
0
VERTEX
8
0
10
11.30211875
20
15.487075
30
0
0
VERTEX
8
0
10
11.347921875
20
15.468103125
30
0
0
VERTEX
8
0
10
11.395809375
20
15.455271875000001
30
0
0
VERTEX
8
0
10
11.4449625
20
15.4488
30
0
0
VERTEX
8
0
10
11.4945375
20
15.4488
30
0
0
SEQEND
0
POLYLINE
66
1
8
1_copper
10
0.0
20
0.0
30
0.0
70
1
0
VERTEX
8
0
10
13.56
20
7.556659375000001
30
0
42
0.03861072921745051
0
VERTEX
8
0
10
13.5624
20
7.58
30
0
0
VERTEX
8
0
10
13.5624
20
10.183821875000001
30
0
42
0.9390602036732622
0
VERTEX
8
0
10
13.10350625
20
10.785125
30
0
0
VERTEX
8
0
10
13.064175
20
10.75494375
30
0
42
0.6380747989347293
0
VERTEX
8
0
10
13.2576
20
10.095959375
30
0
0
VERTEX
8
0
10
13.2576
20
7.58
30
0
0
VERTEX
8
0
10
13.26
20
7.556378125
30
0
0
VERTEX
8
0
10
13.26
20
7.180000000000001
30
0
0
VERTEX
8
0
10
13.56
20
7.180000000000001
30
0
0
SEQEND
0
POLYLINE
66
1
8
16_copper
10
0.0
20
0.0
30
0.0
70
1
0
VERTEX
8
0
10
13.388015625000001
20
10.098259375000001
30
0
42
0.9999999999999999
0
VERTEX
8
0
10
13.240134375
20
10.841715625
30
0
0
VERTEX
8
0
10
13.192246875
20
10.828884375000001
30
0
42
0.15013146069500605
0
VERTEX
8
0
10
13.012409375
20
10.698115625
30
0
0
VERTEX
8
0
10
11.622150000000001
20
12.088375000000001
30
0
0
VERTEX
8
0
10
11.622150000000001
20
15.480765625
30
0
42
0.9572289051629038
0
VERTEX
8
0
10
11.347921875
20
16.185896875
30
0
0
VERTEX
8
0
10
11.30211875
20
16.166925
30
0
42
0.6370260012064161
0
VERTEX
8
0
10
11.317350000000001
20
15.480765625
30
0
0
VERTEX
8
0
10
11.317350000000001
20
12.02525
30
0
42
0.19891236737965798
0
VERTEX
8
0
10
11.3619875
20
11.9174875
30
0
0
VERTEX
8
0
10
12.917250000000001
20
10.362225
30
0
42
0.12332143765567113
0
VERTEX
8
0
10
12.97415
20
10.30235625
30
0
0
VERTEX
8
0
10
12.9989375
20
10.25941875
30
0
0
VERTEX
8
0
10
13.02911875
20
10.2200875
30
0
0
VERTEX
8
0
10
13.064175
20
10.18503125
30
0
0
VERTEX
8
0
10
13.10350625
20
10.15485
30
0
0
VERTEX
8
0
10
13.146443750000001
20
10.130062500000001
30
0
0
VERTEX
8
0
10
13.192246875
20
10.111090625000001
30
0
0
VERTEX
8
0
10
13.240134375
20
10.098259375000001
30
0
0
VERTEX
8
0
10
13.2892875
20
10.0917875
30
0
0
VERTEX
8
0
10
13.338862500000001
20
10.0917875
30
0
0
SEQEND
0
POLYLINE
66
1
8
1_copper
10
0.0
20
0.0
30
0.0
70
1
0
VERTEX
8
0
10
10.06
20
7.556659375000001
30
0
42
0.03861072921745051
0
VERTEX
8
0
10
10.0624
20
7.58
30
0
0
VERTEX
8
0
10
10.0624
20
13.238212500000001
30
0
0
VERTEX
8
0
10
12.5677625
20
15.743575
30
0
42
0.19891236737965798
0
VERTEX
8
0
10
12.612400000000001
20
15.851337500000001
30
0
0
VERTEX
8
0
10
12.612400000000001
20
22.32
30
0
0
VERTEX
8
0
10
12.610000000000001
20
22.343621875
30
0
0
VERTEX
8
0
10
12.610000000000001
20
24.32
30
0
0
VERTEX
8
0
10
12.31
20
24.32
30
0
0
VERTEX
8
0
10
12.31
20
22.343340625
30
0
42
0.03861072921745051
0
VERTEX
8
0
10
12.3076
20
22.32
30
0
0
VERTEX
8
0
10
12.3076
20
15.9144625
30
0
0
VERTEX
8
0
10
9.8022375
20
13.4091
30
0
42
0.19891236737965798
0
VERTEX
8
0
10
9.7576
20
13.3013375
30
0
0
VERTEX
8
0
10
9.7576
20
7.58
30
0
0
VERTEX
8
0
10
9.76
20
7.556378125
30
0
0
VERTEX
8
0
10
9.76
20
7.180000000000001
30
0
0
VERTEX
8
0
10
10.06
20
7.180000000000001
30
0
0
SEQEND
0
POLYLINE
66
1
8
1_copper
10
0.0
20
0.0
30
0.0
70
1
0
VERTEX
8
0
10
10.56
20
7.556659375000001
30
0
42
0.03861072921745051
0
VERTEX
8
0
10
10.5624
20
7.58
30
0
0
VERTEX
8
0
10
10.5624
20
13.0311
30
0
0
VERTEX
8
0
10
13.0677625
20
15.5364625
30
0
42
0.19891236737965798
0
VERTEX
8
0
10
13.112400000000001
20
15.644225
30
0
0
VERTEX
8
0
10
13.112400000000001
20
22.32
30
0
0
VERTEX
8
0
10
13.110000000000001
20
22.343621875
30
0
0
VERTEX
8
0
10
13.110000000000001
20
24.32
30
0
0
VERTEX
8
0
10
12.81
20
24.32
30
0
0
VERTEX
8
0
10
12.81
20
22.343340625
30
0
42
0.03861072921745051
0
VERTEX
8
0
10
12.8076
20
22.32
30
0
0
VERTEX
8
0
10
12.8076
20
15.70735
30
0
0
VERTEX
8
0
10
10.3022375
20
13.201987500000001
30
0
42
0.19891236737965798
0
VERTEX
8
0
10
10.2576
20
13.094225
30
0
0
VERTEX
8
0
10
10.2576
20
7.58
30
0
0
VERTEX
8
0
10
10.26
20
7.556378125
30
0
0
VERTEX
8
0
10
10.26
20
7.180000000000001
30
0
0
VERTEX
8
0
10
10.56
20
7.180000000000001
30
0
0
SEQEND
0
POLYLINE
66
1
8
1_copper
10
0.0
20
0.0
30
0.0
70
1
0
VERTEX
8
0
10
11.06
20
7.556659375000001
30
0
42
0.03861072921745051
0
VERTEX
8
0
10
11.0624
20
7.58
30
0
0
VERTEX
8
0
10
11.0624
20
12.823987500000001
30
0
0
VERTEX
8
0
10
13.5677625
20
15.329350000000002
30
0
42
0.19891236737965798
0
VERTEX
8
0
10
13.612400000000001
20
15.437112500000001
30
0
0
VERTEX
8
0
10
13.612400000000001
20
22.32
30
0
0
VERTEX
8
0
10
13.610000000000001
20
22.343621875
30
0
0
VERTEX
8
0
10
13.610000000000001
20
24.32
30
0
0
VERTEX
8
0
10
13.31
20
24.32
30
0
0
VERTEX
8
0
10
13.31
20
22.343340625
30
0
42
0.03861072921745051
0
VERTEX
8
0
10
13.3076
20
22.32
30
0
0
VERTEX
8
0
10
13.3076
20
15.5002375
30
0
0
VERTEX
8
0
10
10.8022375
20
12.994875
30
0
42
0.19891236737965798
0
VERTEX
8
0
10
10.7576
20
12.8871125
30
0
0
VERTEX
8
0
10
10.7576
20
7.58
30
0
0
VERTEX
8
0
10
10.76
20
7.556378125
30
0
0
VERTEX
8
0
10
10.76
20
7.180000000000001
30
0
0
VERTEX
8
0
10
11.06
20
7.180000000000001
30
0
0
SEQEND
0
POLYLINE
66
1
8
1_copper
10
0.0
20
0.0
30
0.0
70
1
0
VERTEX
8
0
10
11.56
20
7.556659375000001
30
0
42
0.03861072921745051
0
VERTEX
8
0
10
11.5624
20
7.58
30
0
0
VERTEX
8
0
10
11.5624
20
12.616875
30
0
0
VERTEX
8
0
10
14.0677625
20
15.1222375
30
0
42
0.19891236737965798
0
VERTEX
8
0
10
14.112400000000001
20
15.23
30
0
0
VERTEX
8
0
10
14.112400000000001
20
22.32
30
0
0
VERTEX
8
0
10
14.110000000000001
20
22.343621875
30
0
0
VERTEX
8
0
10
14.110000000000001
20
24.32
30
0
0
VERTEX
8
0
10
13.81
20
24.32
30
0
0
VERTEX
8
0
10
13.81
20
22.343340625
30
0
42
0.03861072921745051
0
VERTEX
8
0
10
13.8076
20
22.32
30
0
0
VERTEX
8
0
10
13.8076
20
15.293125
30
0
0
VERTEX
8
0
10
11.3022375
20
12.787762500000001
30
0
42
0.19891236737965798
0
VERTEX
8
0
10
11.2576
20
12.680000000000001
30
0
0
VERTEX
8
0
10
11.2576
20
7.58
30
0
0
VERTEX
8
0
10
11.26
20
7.556378125
30
0
0
VERTEX
8
0
10
11.26
20
7.180000000000001
30
0
0
VERTEX
8
0
10
11.56
20
7.180000000000001
30
0
0
SEQEND
0
POLYLINE
66
1
8
1_copper
10
0.0
20
0.0
30
0.0
70
1
0
VERTEX
8
0
10
14.06
20
7.556659375000001
30
0
42
0.03861072921745051
0
VERTEX
8
0
10
14.0624
20
7.58
30
0
0
VERTEX
8
0
10
14.0624
20
10.036875
30
0
0
VERTEX
8
0
10
14.5677625
20
10.5422375
30
0
42
0.19891236737965798
0
VERTEX
8
0
10
14.612400000000001
20
10.65
30
0
0
VERTEX
8
0
10
14.612400000000001
20
22.32
30
0
0
VERTEX
8
0
10
14.610000000000001
20
22.343621875
30
0
0
VERTEX
8
0
10
14.610000000000001
20
24.32
30
0
0
VERTEX
8
0
10
14.31
20
24.32
30
0
0
VERTEX
8
0
10
14.31
20
22.343340625
30
0
42
0.03861072921745051
0
VERTEX
8
0
10
14.3076
20
22.32
30
0
0
VERTEX
8
0
10
14.3076
20
10.713125
30
0
0
VERTEX
8
0
10
13.8022375
20
10.207762500000001
30
0
42
0.19891236737965798
0
VERTEX
8
0
10
13.7576
20
10.1
30
0
0
VERTEX
8
0
10
13.7576
20
7.58
30
0
0
VERTEX
8
0
10
13.76
20
7.556378125
30
0
0
VERTEX
8
0
10
13.76
20
7.180000000000001
30
0
0
VERTEX
8
0
10
14.06
20
7.180000000000001
30
0
0
SEQEND
0
POLYLINE
66
1
8
1_copper
10
0.0
20
0.0
30
0.0
70
1
0
VERTEX
8
0
10
15.56
20
7.556659375000001
30
0
42
0.03861072921745051
0
VERTEX
8
0
10
15.5624
20
7.58
30
0
0
VERTEX
8
0
10
15.5624
20
11.26
30
0
42
0.19891236737965798
0
VERTEX
8
0
10
15.5177625
20
11.367762500000001
30
0
0
VERTEX
8
0
10
15.112400000000001
20
11.773125
30
0
0
VERTEX
8
0
10
15.112400000000001
20
22.32
30
0
0
VERTEX
8
0
10
15.110000000000001
20
22.343621875
30
0
0
VERTEX
8
0
10
15.110000000000001
20
24.32
30
0
0
VERTEX
8
0
10
14.81
20
24.32
30
0
0
VERTEX
8
0
10
14.81
20
22.343340625
30
0
42
0.03861072921745051
0
VERTEX
8
0
10
14.8076
20
22.32
30
0
0
VERTEX
8
0
10
14.8076
20
11.71
30
0
42
0.19891236737965798
0
VERTEX
8
0
10
14.852237500000001
20
11.602237500000001
30
0
0
VERTEX
8
0
10
15.2576
20
11.196875
30
0
0
VERTEX
8
0
10
15.2576
20
7.58
30
0
0
VERTEX
8
0
10
15.260000000000002
20
7.556378125
30
0
0
VERTEX
8
0
10
15.260000000000002
20
7.180000000000001
30
0
0
VERTEX
8
0
10
15.56
20
7.180000000000001
30
0
0
SEQEND
0
POLYLINE
66
1
8
1_copper
10
0.0
20
0.0
30
0.0
70
1
0
VERTEX
8
0
10
16.060000000000002
20
7.556659375000001
30
0
42
0.03861072921745051
0
VERTEX
8
0
10
16.0624
20
7.58
30
0
0
VERTEX
8
0
10
16.0624
20
11.71
30
0
42
0.19891236737965798
0
VERTEX
8
0
10
16.0177625
20
11.8177625
30
0
0
VERTEX
8
0
10
15.612400000000001
20
12.223125000000001
30
0
0
VERTEX
8
0
10
15.612400000000001
20
22.32
30
0
0
VERTEX
8
0
10
15.610000000000001
20
22.343621875
30
0
0
VERTEX
8
0
10
15.610000000000001
20
24.32
30
0
0
VERTEX
8
0
10
15.31
20
24.32
30
0
0
VERTEX
8
0
10
15.31
20
22.343340625
30
0
42
0.03861072921745051
0
VERTEX
8
0
10
15.3076
20
22.32
30
0
0
VERTEX
8
0
10
15.3076
20
12.16
30
0
42
0.19891236737965798
0
VERTEX
8
0
10
15.352237500000001
20
12.0522375
30
0
0
VERTEX
8
0
10
15.7576
20
11.646875000000001
30
0
0
VERTEX
8
0
10
15.7576
20
7.58
30
0
0
VERTEX
8
0
10
15.760000000000002
20
7.556378125
30
0
0
VERTEX
8
0
10
15.760000000000002
20
7.180000000000001
30
0
0
VERTEX
8
0
10
16.060000000000002
20
7.180000000000001
30
0
0
SEQEND
0
POLYLINE
66
1
8
1_copper
10
0.0
20
0.0
30
0.0
70
1
0
VERTEX
8
0
10
5.11
20
24.32
30
0
0
VERTEX
8
0
10
4.8100000000000005
20
24.32
30
0
0
VERTEX
8
0
10
4.8100000000000005
20
20.32
30
0
0
VERTEX
8
0
10
5.11
20
20.32
30
0
0
SEQEND
0
POLYLINE
66
1
8
1_copper
10
0.0
20
0.0
30
0.0
70
1
0
VERTEX
8
0
10
5.61
20
24.32
30
0
0
VERTEX
8
0
10
5.3100000000000005
20
24.32
30
0
0
VERTEX
8
0
10
5.3100000000000005
20
20.32
30
0
0
VERTEX
8
0
10
5.61
20
20.32
30
0
0
SEQEND
0
POLYLINE
66
1
8
1_copper
10
0.0
20
0.0
30
0.0
70
1
0
VERTEX
8
0
10
15.06
20
7.556659375000001
30
0
42
0.03861072921745051
0
VERTEX
8
0
10
15.0624
20
7.58
30
0
0
VERTEX
8
0
10
15.0624
20
8.966000000000001
30
0
42
0.19891236737965798
0
VERTEX
8
0
10
15.0177625
20
9.0737625
30
0
0
VERTEX
8
0
10
14.7454
20
9.346125
30
0
0
VERTEX
8
0
10
14.7454
20
9.470853125
30
0
42
0.9572289051629038
0
VERTEX
8
0
10
14.471171875000001
20
10.175984375
30
0
0
VERTEX
8
0
10
14.42536875
20
10.1570125
30
0
42
0.6370260012064161
0
VERTEX
8
0
10
14.4406
20
9.470853125
30
0
0
VERTEX
8
0
10
14.4406
20
9.283000000000001
30
0
42
0.19891236737965798
0
VERTEX
8
0
10
14.4852375
20
9.1752375
30
0
0
VERTEX
8
0
10
14.7576
20
8.902875
30
0
0
VERTEX
8
0
10
14.7576
20
7.58
30
0
0
VERTEX
8
0
10
14.760000000000002
20
7.556378125
30
0
0
VERTEX
8
0
10
14.760000000000002
20
7.180000000000001
30
0
0
VERTEX
8
0
10
15.06
20
7.180000000000001
30
0
0
SEQEND
0
POLYLINE
66
1
8
16_copper
10
0.0
20
0.0
30
0.0
70
1
0
VERTEX
8
0
10
14.666940625
20
9.445359375
30
0
0
VERTEX
8
0
10
14.714828125
20
9.458190625
30
0
0
VERTEX
8
0
10
14.760631250000001
20
9.4771625
30
0
0
VERTEX
8
0
10
14.80356875
20
9.50195
30
0
0
VERTEX
8
0
10
14.8429
20
9.53213125
30
0
0
VERTEX
8
0
10
14.87795625
20
9.567187500000001
30
0
0
VERTEX
8
0
10
14.9081375
20
9.606518750000001
30
0
0
VERTEX
8
0
10
14.932925000000001
20
9.64945625
30
0
0
VERTEX
8
0
10
14.951896875000001
20
9.695259375000001
30
0
0
VERTEX
8
0
10
14.964728125
20
9.743146875
30
0
0
VERTEX
8
0
10
14.971200000000001
20
9.792300000000001
30
0
0
VERTEX
8
0
10
14.971200000000001
20
9.841875
30
0
0
VERTEX
8
0
10
14.964728125
20
9.891028125
30
0
0
VERTEX
8
0
10
14.951896875000001
20
9.938915625
30
0
0
VERTEX
8
0
10
14.932925000000001
20
9.98471875
30
0
0
VERTEX
8
0
10
14.9081375
20
10.02765625
30
0
0
VERTEX
8
0
10
14.87795625
20
10.0669875
30
0
0
VERTEX
8
0
10
14.8429
20
10.10204375
30
0
0
VERTEX
8
0
10
14.80356875
20
10.132225
30
0
0
VERTEX
8
0
10
14.760631250000001
20
10.1570125
30
0
0
VERTEX
8
0
10
14.714828125
20
10.175984375
30
0
0
VERTEX
8
0
10
14.666940625
20
10.188815625
30
0
0
VERTEX
8
0
10
14.6177875
20
10.195287500000001
30
0
0
VERTEX
8
0
10
14.568212500000001
20
10.195287500000001
30
0
0
VERTEX
8
0
10
14.519059375000001
20
10.188815625
30
0
0
VERTEX
8
0
10
14.471171875000001
20
10.175984375
30
0
0
VERTEX
8
0
10
14.42536875
20
10.1570125
30
0
0
VERTEX
8
0
10
14.382431250000002
20
10.132225
30
0
0
VERTEX
8
0
10
14.343100000000002
20
10.10204375
30
0
0
VERTEX
8
0
10
14.308043750000001
20
10.0669875
30
0
0
VERTEX
8
0
10
14.277862500000001
20
10.02765625
30
0
0
VERTEX
8
0
10
14.253075
20
9.98471875
30
0
0
VERTEX
8
0
10
14.234103125
20
9.938915625
30
0
0
VERTEX
8
0
10
14.221271875000001
20
9.891028125
30
0
0
VERTEX
8
0
10
14.2148
20
9.841875
30
0
0
VERTEX
8
0
10
14.2148
20
9.792300000000001
30
0
0
VERTEX
8
0
10
14.221271875000001
20
9.743146875
30
0
0
VERTEX
8
0
10
14.234103125
20
9.695259375000001
30
0
0
VERTEX
8
0
10
14.253075
20
9.64945625
30
0
0
VERTEX
8
0
10
14.277862500000001
20
9.606518750000001
30
0
0
VERTEX
8
0
10
14.308043750000001
20
9.567187500000001
30
0
0
VERTEX
8
0
10
14.343100000000002
20
9.53213125
30
0
0
VERTEX
8
0
10
14.382431250000002
20
9.50195
30
0
0
VERTEX
8
0
10
14.42536875
20
9.4771625
30
0
0
VERTEX
8
0
10
14.471171875000001
20
9.458190625
30
0
0
VERTEX
8
0
10
14.519059375000001
20
9.445359375
30
0
0
VERTEX
8
0
10
14.568212500000001
20
9.4388875
30
0
0
VERTEX
8
0
10
14.6177875
20
9.4388875
30
0
0
SEQEND
0
CIRCLE
8
drills_via_1_16
10
13.97
20
6.3500000000000005
30
0
40
0.17500000000000002
0
CIRCLE
8
drills_via_1_16
10
6.3500000000000005
20
17.78
30
0
40
0.17500000000000002
0
CIRCLE
8
drills_via_1_16
10
7.4295
20
19.6215
30
0
40
0.17500000000000002
0
CIRCLE
8
drills_via_1_16
10
10.44833125
20
15.83241875
30
0
40
0.17500000000000002
0
CIRCLE
8
drills_via_1_16
10
12.67145625
20
9.82736875
30
0
40
0.17500000000000002
0
CIRCLE
8
drills_via_1_16
10
11.469750000000001
20
15.827
30
0
40
0.17500000000000002
0
CIRCLE
8
drills_via_1_16
10
13.314075
20
10.4699875
30
0
40
0.17500000000000002
0
CIRCLE
8
drills_via_1_16
10
14.593
20
9.817087500000001
30
0
40
0.17500000000000002
0
ENDSEC
0
EOF